<?xml version="1.0" standalone="no"?>
<!DOCTYPE svg PUBLIC "-//W3C//DTD SVG 20010904//EN"
 "http://www.w3.org/TR/2001/REC-SVG-20010904/DTD/svg10.dtd">
<svg version="1.0" xmlns="http://www.w3.org/2000/svg"
 width="330.000000pt" height="330.000000pt" viewBox="0 0 330.000000 330.000000"
 preserveAspectRatio="xMidYMid meet">
<metadata>
Created by potrace 1.11, written by Peter Selinger 2001-2013
</metadata>
<g transform="translate(0.000000,330.000000) scale(0.100000,-0.100000)"
fill="#000000" stroke="none">
<path d="M1556 3249 c-14 -17 -26 -35 -26 -40 0 -5 -9 -18 -20 -29 l-21 -21
-46 41 c-67 59 -94 54 -143 -25 -12 -19 -26 -35 -31 -35 -5 0 -32 18 -60 40
-28 22 -57 40 -64 40 -13 0 -31 -17 -79 -75 -24 -30 -25 -30 -54 -12 -49 28
-87 22 -117 -17 -24 -31 -29 -34 -52 -25 -33 12 -63 -12 -63 -52 0 -16 -7 -47
-16 -69 -22 -54 -15 -142 19 -235 38 -106 110 -256 161 -333 25 -38 46 -75 46
-81 0 -7 48 -61 108 -120 71 -72 112 -121 121 -147 7 -22 22 -57 33 -79 11
-22 26 -69 33 -105 28 -130 30 -135 50 -135 17 0 19 6 17 35 -2 19 -8 43 -13
52 -5 9 -9 28 -9 42 0 14 -5 28 -11 32 -8 5 -6 10 5 16 12 7 24 5 41 -6 18
-12 25 -28 31 -73 8 -67 19 -93 39 -93 20 0 29 20 16 33 -6 6 -11 26 -11 45 0
18 -4 42 -10 52 -15 28 -2 50 31 50 36 0 54 -32 64 -113 5 -37 13 -61 22 -64
25 -10 29 12 19 86 -10 75 -5 92 22 75 13 -9 17 -27 18 -78 1 -69 12 -93 37
-83 11 4 13 21 9 75 -5 76 7 112 38 112 30 0 41 -32 32 -93 -9 -58 0 -101 20
-95 8 3 17 38 23 88 7 61 15 86 28 94 14 8 20 8 28 -4 9 -14 8 -40 -6 -125 -6
-36 7 -60 29 -52 12 5 16 19 16 53 0 84 30 148 61 129 18 -12 20 -73 5 -119
-23 -67 -5 -91 30 -39 12 20 18 51 20 105 2 68 7 85 44 153 23 42 57 97 76
121 19 25 34 49 34 53 0 5 27 27 60 50 40 28 62 51 66 69 4 15 25 61 49 102
39 70 69 138 125 284 43 110 36 362 -10 419 -18 21 -20 22 -50 5 -35 -20 -59
-12 -76 25 -18 40 -39 43 -84 13 -48 -32 -70 -31 -87 4 -18 36 -50 59 -73 53
-12 -3 -33 -18 -48 -34 -36 -39 -54 -37 -92 11 -43 55 -71 53 -131 -6 -49 -48
-79 -54 -79 -16 0 26 -35 69 -70 87 -40 20 -45 19 -74 -16z m80 -91 c24 -46
86 -118 101 -118 8 0 18 11 23 25 14 38 63 95 80 95 9 0 23 -16 32 -36 16 -36
16 -37 -5 -54 -12 -10 -39 -34 -59 -54 -20 -20 -44 -36 -53 -36 -8 0 -40 25
-70 55 -31 30 -64 55 -74 55 -11 0 -42 -25 -69 -55 -28 -30 -57 -55 -64 -55
-8 0 -29 16 -48 35 -37 38 -64 44 -92 18 -21 -19 -34 -12 -22 14 4 10 13 38
18 62 15 59 37 73 70 42 14 -13 33 -43 42 -67 21 -54 49 -66 75 -33 10 13 21
39 25 57 7 38 39 82 59 82 8 0 22 -15 31 -32z m-449 -57 c13 -19 26 -46 30
-60 8 -34 32 -61 55 -61 22 0 24 -23 3 -40 -11 -9 -21 -5 -53 27 -22 21 -52
46 -66 56 -38 26 -50 56 -37 91 14 36 38 31 68 -13z m885 4 c6 -14 15 -25 20
-25 19 0 5 -23 -47 -76 -44 -46 -57 -55 -69 -45 -10 9 -12 20 -6 41 15 53 64
130 82 130 5 0 14 -11 20 -25z m205 -46 c6 -33 14 -63 17 -66 12 -13 48 12 61
43 16 39 35 45 35 10 0 -16 -23 -47 -71 -95 -38 -39 -74 -69 -78 -66 -5 2 -19
32 -31 65 -12 33 -27 63 -31 66 -17 10 -9 35 23 69 46 52 61 46 75 -26z
m-1264 -28 l45 -48 -13 -68 c-17 -91 -29 -97 -85 -36 -25 27 -59 54 -77 61
-44 17 -65 43 -61 76 4 40 23 40 48 -1 34 -55 50 -68 66 -54 10 8 12 25 8 65
-9 70 7 71 69 5z m625 -63 c7 -7 12 -18 12 -26 0 -7 7 -20 15 -28 8 -8 24 -45
36 -82 24 -76 28 -229 8 -336 -21 -116 -74 -256 -98 -256 -21 0 -71 92 -85
156 -22 108 -36 198 -36 238 0 57 29 183 56 245 44 99 63 118 92 89z m249 -40
c26 -53 36 -234 19 -343 -2 -11 -7 -43 -11 -70 -10 -73 -94 -240 -120 -240
-17 0 -20 6 -17 35 1 19 7 44 12 55 37 84 51 256 36 432 -8 91 -8 93 19 128
30 40 44 41 62 3z m253 -23 c32 -96 -9 -314 -86 -468 -44 -86 -119 -177 -147
-177 -17 0 -13 38 6 73 53 95 87 234 96 387 6 111 10 130 31 160 32 45 61 69
77 63 6 -3 17 -20 23 -38z m-728 -10 c21 -42 21 -49 9 -103 -7 -31 -13 -111
-13 -177 0 -112 2 -127 35 -217 29 -82 33 -100 22 -115 -10 -14 -16 -15 -28
-5 -32 27 -75 135 -117 295 -21 78 -8 239 25 310 14 31 31 57 36 57 5 0 19
-20 31 -45z m-218 -28 c27 -44 30 -59 37 -170 11 -167 21 -211 77 -341 33 -78
32 -124 -3 -98 -43 31 -134 206 -160 307 -16 62 -25 225 -17 308 5 62 25 60
66 -6z m1180 8 c10 -27 -25 -167 -61 -245 -114 -248 -186 -365 -228 -372 -32
-5 -29 30 8 85 18 29 40 70 47 92 7 22 23 60 35 85 13 25 28 72 36 105 18 86
41 135 95 204 50 64 58 70 68 46z m-1487 -27 c65 -28 153 -165 173 -266 11
-60 31 -112 81 -217 39 -83 43 -129 10 -123 -35 7 -179 250 -236 403 -13 33
-33 80 -44 105 -18 40 -29 110 -16 110 2 0 17 -5 32 -12z m1119 -694 c8 -33
-22 -130 -49 -155 -47 -43 -65 -15 -49 74 17 91 82 145 98 81z m-269 -14 c16
-31 17 -114 2 -143 -14 -27 -28 -37 -51 -37 -50 0 -53 135 -5 198 15 19 40 10
54 -18z m-445 -7 c54 -59 72 -128 42 -158 -15 -15 -18 -14 -34 13 -37 60 -72
143 -66 157 8 23 30 18 58 -12z m177 -61 c22 -70 17 -106 -18 -115 -31 -8 -52
14 -62 64 -13 70 -11 110 8 124 28 20 50 -3 72 -73z m103 61 c15 -17 29 -46
33 -71 13 -80 -34 -135 -69 -79 -28 45 -27 177 2 177 4 0 20 -12 34 -27z m286
-28 c6 -97 -21 -153 -61 -122 -13 10 -13 23 -5 82 11 76 22 98 47 93 12 -2 17
-17 19 -53z"/>
<path d="M962 2198 c-7 -7 -12 -44 -12 -95 l0 -83 40 -20 c49 -25 114 -90 135
-135 24 -49 98 -117 119 -109 14 5 17 15 13 43 -19 140 -97 288 -189 358 -62
47 -89 58 -106 41z"/>
<path d="M2195 2173 c-85 -56 -142 -138 -171 -248 -18 -67 -18 -144 0 -151 17
-6 56 12 56 27 0 22 84 147 130 194 49 49 50 50 50 111 0 62 -6 95 -19 93 -3
0 -24 -12 -46 -26z"/>
<path d="M2294 1987 c-65 -35 -96 -67 -143 -147 -25 -41 -69 -100 -99 -130
l-55 -55 6 -246 c5 -241 5 -247 -17 -295 -30 -64 -107 -129 -178 -151 -61 -18
-300 -21 -357 -4 -62 19 -105 55 -136 117 l-30 59 -3 253 -3 252 -52 40 c-45
33 -117 118 -117 136 0 11 -50 65 -90 99 -33 27 -52 35 -105 40 -39 5 -70 3
-78 -3 -6 -5 -30 -15 -52 -22 -55 -18 -90 -44 -116 -88 -12 -20 -27 -41 -33
-47 -19 -17 -56 -107 -77 -190 -15 -60 -20 -111 -21 -211 0 -72 5 -140 10
-150 15 -30 30 -66 41 -105 13 -41 63 -93 106 -109 79 -30 188 -12 325 53 41
19 86 38 100 42 33 8 76 -8 90 -34 16 -31 -4 -102 -36 -128 -41 -32 -129 -53
-229 -53 -78 0 -96 -4 -149 -30 -75 -36 -99 -72 -98 -144 1 -88 67 -235 146
-324 144 -163 320 -233 550 -219 l88 6 60 -62 c32 -34 71 -74 85 -90 15 -15
34 -27 44 -27 16 0 107 96 152 160 16 22 23 25 70 21 160 -12 236 -1 337 48
77 38 116 65 186 126 36 33 70 62 75 63 5 2 9 8 9 14 0 6 11 25 24 42 43 58
64 112 81 210 18 107 16 129 -16 170 -38 48 -97 66 -214 65 -103 -1 -181 14
-252 48 -63 30 -71 136 -14 180 32 24 81 14 194 -41 128 -62 176 -77 221 -70
112 20 198 111 222 237 26 133 15 257 -36 407 -53 158 -139 253 -269 293 -68
22 -97 21 -147 -6z m153 -152 c54 -46 77 -115 68 -199 -4 -43 -3 -66 5 -71 6
-4 22 -30 36 -58 20 -42 24 -65 23 -119 -2 -80 -20 -115 -78 -154 -69 -45 -88
4 -22 57 22 17 45 45 50 62 10 26 6 38 -25 96 -32 59 -37 76 -41 156 -6 135
-25 173 -100 206 -44 19 -55 41 -27 57 26 14 71 1 111 -33z m-1489 -10 c2 -14
-12 -32 -43 -58 -66 -56 -79 -86 -81 -192 -2 -76 -6 -99 -28 -139 -28 -52 -34
-112 -15 -149 6 -12 25 -36 41 -53 22 -23 28 -38 23 -53 -14 -45 -85 -11 -120
59 -24 46 -15 176 15 225 17 27 20 49 20 140 0 124 11 155 72 210 32 30 46 36
76 33 28 -2 38 -8 40 -23z m1332 -335 c0 -16 -7 -20 -30 -20 -23 0 -30 -4 -30
-20 0 -16 7 -20 30 -20 23 0 30 -4 30 -20 0 -16 -7 -20 -30 -20 -28 0 -30 -2
-30 -40 0 -33 -3 -40 -20 -40 -19 0 -20 7 -20 100 l0 100 50 0 c43 0 50 -3 50
-20z m-1228 -60 l38 -65 0 68 c0 60 2 67 20 67 19 0 20 -7 20 -100 0 -97 -1
-100 -22 -100 -18 0 -31 15 -58 66 l-35 66 -3 -66 c-3 -58 -5 -66 -22 -66 -19
0 -20 7 -20 101 0 98 1 100 22 97 15 -2 34 -24 60 -68z m1337 -594 c20 -23 15
-128 -7 -172 -24 -47 -43 -65 -99 -94 -43 -22 -127 -106 -137 -138 -4 -9 -29
-34 -57 -54 -44 -32 -59 -38 -103 -38 -57 0 -76 12 -76 46 0 30 11 35 76 38
47 2 59 7 90 37 19 19 47 55 61 82 15 27 33 47 43 47 20 0 142 96 152 119 4 9
7 41 7 72 1 31 4 59 8 62 11 11 30 8 42 -7z m-1442 -61 c-5 -35 -2 -53 14 -82
26 -46 38 -56 116 -93 48 -23 72 -43 103 -85 51 -69 99 -95 179 -95 63 0 76
-8 66 -40 -14 -44 -103 -63 -176 -39 -42 14 -92 61 -124 115 -19 32 -45 54
-106 89 -92 53 -118 93 -119 180 0 70 9 95 33 95 18 0 19 -4 14 -45z m405 18
c30 -27 16 -93 -19 -93 -15 0 -15 -1 -1 -12 8 -7 25 -28 37 -45 l22 -33 -24 0
c-17 0 -32 12 -51 40 -16 24 -34 40 -46 40 -17 0 -20 -7 -20 -40 0 -33 -3 -40
-20 -40 -19 0 -20 7 -20 100 l0 100 62 0 c43 0 67 -5 80 -17z m363 -4 c16 -17
17 -25 8 -49 -9 -23 -8 -32 3 -41 19 -15 18 -48 -3 -71 -13 -14 -31 -18 -85
-18 l-68 0 0 100 0 100 63 0 c52 0 67 -4 82 -21z m351 -81 c31 -93 32 -98 13
-98 -12 0 -23 10 -29 25 -8 20 -16 25 -45 25 -29 0 -37 -5 -45 -25 -6 -15 -17
-25 -29 -25 -19 0 -18 4 10 88 16 48 31 93 34 100 3 8 16 12 32 10 24 -3 29
-12 59 -100z"/>
<path d="M1260 750 c0 -18 5 -21 38 -18 25 2 37 8 37 18 0 10 -12 16 -37 18
-33 3 -38 0 -38 -18z"/>
<path d="M1620 750 c0 -18 5 -21 38 -18 25 2 37 8 37 18 0 10 -12 16 -37 18
-33 3 -38 0 -38 -18z"/>
<path d="M1620 670 c0 -19 5 -21 43 -18 29 2 42 8 42 18 0 10 -13 16 -42 18
-38 3 -43 1 -43 -18z"/>
<path d="M2007 748 c-4 -14 -10 -33 -13 -42 -5 -12 0 -16 20 -16 29 0 29 1 12
50 l-13 35 -6 -27z"/>
<path d="M1342 1657 c-26 -28 -29 -82 -6 -115 15 -22 17 -22 298 -22 282 0
283 0 304 23 30 32 29 87 -1 115 -23 21 -30 22 -298 22 -275 0 -276 0 -297
-23z"/>
<path d="M2122 1108 c-20 -20 -14 -35 22 -63 23 -18 55 -29 93 -34 94 -13 109
6 44 58 -62 49 -132 66 -159 39z"/>
<path d="M2675 1060 c-27 -22 -54 -40 -60 -40 -5 0 -19 -7 -29 -15 -19 -14
-18 -16 15 -48 58 -56 77 -63 110 -38 15 12 31 21 34 21 18 0 65 47 65 65 0
29 -47 95 -68 94 -9 0 -39 -18 -67 -39z"/>
<path d="M1041 1039 c-68 -37 -67 -35 -50 -55 20 -25 123 -14 155 17 29 27 30
45 5 59 -30 16 -51 12 -110 -21z"/>
<path d="M551 1024 c-12 -9 -30 -32 -40 -52 -16 -31 -17 -41 -7 -60 20 -38
119 -88 147 -75 25 12 92 104 82 113 -4 4 -28 18 -53 31 -25 13 -52 28 -60 35
-27 20 -47 23 -69 8z"/>
</g>
</svg>
